#!OML:ASF F:\VICON\USERDATA\INSTALL\rory3\rory3.ASF
:FULLY-SPECIFIED
:DEGREES
5070
root 6.47891 17.2549 -4.43298 27.8635 -77.7508 -20.3442
lowerback 9.48004 4.78551 1.3297
upperback 0.957681 6.5319 1.60346
thorax -4.3345 3.20118 0.0719166
lowerneck -25.1482 0.970769 -7.91204
upperneck 21.9112 2.36642 7.2478
head 11.0439 1.33923 4.37185
rclavicle -7.62339e-014 -1.27222e-014
rhumerus -17.6102 30.8394 -91.3621
rradius 129.558
rwrist -8.87215
rhand -16.4587 22.8191
rfingers 7.12502
rthumb 9.75763 -6.93482
lclavicle -7.62339e-014 -1.27222e-014
lhumerus -27.4827 -6.94921 88.9323
lradius 127.239
lwrist -2.18638
lhand -16.4745 9.17487
lfingers 7.12502
lthumb 9.74241 38.9295
rfemur -7.11789 -3.32138 17.9788
rtibia 35.9598
rfoot -28.6886 2.47395
rtoes -22.1817
lfemur -34.7596 9.18134 -15.4635
ltibia 46.9757
lfoot -14.4643 -1.39938
ltoes -8.52004
5071
root 6.55874 17.3317 -4.48423 24.5922 -78.5624 -16.6884
lowerback 9.40401 4.8757 0.698301
upperback 0.881699 6.57369 1.18836
thorax -4.3928 3.23218 -0.0121705
lowerneck -24.9788 1.10121 -7.72207
upperneck 21.8831 2.52175 7.03088
head 10.9944 1.39621 4.2774
rclavicle -3.32964e-014 9.93923e-015
rhumerus -17.6441 31.0536 -91.3394
rradius 129.709
rwrist -8.81492
rhand -16.4752 22.7935
rfingers 7.12502
rthumb 9.7417 -6.96115
lclavicle -3.32964e-014 9.93923e-015
lhumerus -28.045 -7.50079 88.8748
lradius 127.051
lwrist -2.12691
lhand -16.6417 9.0454
lfingers 7.12502
lthumb 9.58102 38.8075
rfemur -7.91585 -3.91937 16.9661
rtibia 36.78
rfoot -28.3693 2.94931
rtoes -21.1959
lfemur -34.6962 8.8652 -16.288
ltibia 45.905
lfoot -13.8891 -0.784168
ltoes -10.7271
5072
root 6.64519 17.3929 -4.54389 22.5416 -79.0143 -14.5276
lowerback 9.58412 4.89179 0.414658
upperback 0.871408 6.55823 0.976299
thorax -4.51026 3.22682 -0.090072
lowerneck -24.8443 1.21188 -7.65327
upperneck 21.8301 2.67247 6.91436
head 10.9395 1.45512 4.23972
rclavicle 4.27387e-015 -6.36111e-015
rhumerus -17.5872 31.2452 -91.0994
rradius 129.96
rwrist -8.75212
rhand -16.5674 22.7759
rfingers 7.12502
rthumb 9.65272 -6.98297
lclavicle 4.27387e-015 -6.36111e-015
lhumerus -28.4151 -8.04988 88.7372
lradius 126.817
lwrist -1.88707
lhand -16.706 8.88296
lfingers 7.12502
lthumb 9.519 38.6479
rfemur -8.47663 -4.65448 16.4904
rtibia 37.8891
rfoot -28.2136 3.13724
rtoes -19.6744
lfemur -34.4892 8.52012 -16.5042
ltibia 44.932
lfoot -13.4498 -0.380707
ltoes -12.5359
5073
root 6.72208 17.4366 -4.63014 28.0535 -78.2927 -20.4726
lowerback 9.90158 4.7037 1.58508
upperback 1.01719 6.45073 1.52565
thorax -4.46946 3.15142 -0.171272
lowerneck -24.767 1.32547 -7.52079
upperneck 21.7552 2.8921 6.4912
head 10.8891 1.51175 4.08903
rclavicle -3.0911e-014 -6.36111e-015
rhumerus -17.4061 31.5041 -90.6746
rradius 130.208
rwrist -8.5407
rhand -16.6313 22.6647
rfingers 7.12502
rthumb 9.5911 -7.09697
lclavicle -3.0911e-014 -6.36111e-015
lhumerus -28.5629 -8.61831 88.8085
lradius 126.558
lwrist -1.2415
lhand -17.1752 9.07033
lfingers 7.12502
lthumb 9.06631 38.8555
rfemur -8.51006 -5.34011 18.2947
rtibia 39.2069
rfoot -28.3546 2.23478
rtoes -19.1957
lfemur -34.1376 8.12814 -14.4707
ltibia 44.1448
lfoot -13.1508 -0.484999
ltoes -14.5056
5074
root 6.80462 17.4811 -4.69994 27.2617 -78.3292 -19.6556
lowerback 10.0211 4.60872 1.51056
upperback 1.00953 6.31957 1.52942
thorax -4.55345 3.08651 -0.120042
lowerneck -24.5542 1.46058 -7.42313
upperneck 21.7561 3.1052 6.19997
head 10.8404 1.57668 3.99166
rclavicle -6.39093e-014 2.06736e-014
rhumerus -17.4365 31.778 -90.5012
rradius 130.408
rwrist -8.13194
rhand -16.8993 22.605
rfingers 7.12502
rthumb 9.33252 -7.16839
lclavicle -6.39093e-014 2.06736e-014
lhumerus -28.8262 -9.28405 88.945
lradius 126.34
lwrist -0.535469
lhand -17.9971 9.04848
lfingers 7.12502
lthumb 8.27317 38.8665
rfemur -8.97129 -6.26008 18.3267
rtibia 40.7855
rfoot -28.1777 1.10266
rtoes -18.9698
lfemur -33.9919 7.54049 -14.1889
ltibia 43.3566
lfoot -13.0508 -0.451145
ltoes -17.1163
5075
root 6.8897 17.5234 -4.76006 23.2638 -78.8001 -15.3546
lowerback 10.0618 4.57304 0.832601
upperback 0.84586 6.19166 1.16515
thorax -4.77899 3.03363 -0.11848
lowerneck -24.2021 1.63279 -7.38201
upperneck 21.8105 3.27674 6.28392
head 10.7798 1.66474 4.03374
rclavicle -5.59579e-014 -3.18055e-015
rhumerus -17.5874 31.9021 -90.5204
rradius 130.564
rwrist -7.81202
rhand -17.0518 22.7309
rfingers 7.12502
rthumb 9.18537 -7.04907
lclavicle -5.59579e-014 -3.18055e-015
lhumerus -29.1645 -9.9352 88.915
lradius 126.219
lwrist -0.267429
lhand -18.2259 8.99852
lfingers 7.12502
lthumb 8.05231 38.8251
rfemur -9.64677 -7.35081 17.3661
rtibia 42.4471
rfoot -27.6556 0.194211
rtoes -17.6697
lfemur -34.0084 6.94106 -14.8232
ltibia 42.6937
lfoot -12.9759 -0.529736
ltoes -18.9515
5076
root 6.97136 17.5543 -4.82836 21.7508 -78.9954 -13.8318
lowerback 10.1522 4.50961 0.59789
upperback 0.804778 6.08058 1.08829
thorax -4.88845 2.98215 -0.0632715
lowerneck -23.7863 1.78459 -7.38899
upperneck 21.7186 3.47202 6.23617
head 10.6539 1.74579 4.03063
rclavicle -1.55251e-013 -7.95139e-015
rhumerus -17.5537 32.0007 -90.3898
rradius 130.72
rwrist -7.61481
rhand -17.1447 22.6885
rfingers 7.12502
rthumb 9.09576 -7.09541
lclavicle -1.55251e-013 -7.95139e-015
lhumerus -29.4361 -10.4658 89.0571
lradius 126.191
lwrist -0.455199
lhand -18.1459 9.19801
lfingers 7.12502
lthumb 8.12953 39.0216
rfemur -10.0036 -8.19496 17.0768
rtibia 44.1758
rfoot -26.9101 -0.422451
rtoes -13.0723
lfemur -33.8039 6.49351 -14.704
ltibia 42.098
lfoot -12.8693 -0.942974
ltoes -20.2374
5077
root 7.04828 17.5687 -4.90449 23.6343 -78.6566 -16.0898
lowerback 10.3754 4.3629 1.23311
upperback 0.892237 5.96397 1.28352
thorax -4.87725 2.91053 -0.208183
lowerneck -23.4808 1.89158 -7.35104
upperneck 21.7078 3.62553 6.07435
head 10.5859 1.79572 3.97829
rclavicle -1.15593e-013 -1.98785e-014
rhumerus -17.3788 31.9508 -90.1155
rradius 130.803
rwrist -7.38696
rhand -17.311 22.667
rfingers 7.12502
rthumb 8.93525 -7.1238
lclavicle -1.15593e-013 -1.98785e-014
lhumerus -29.4994 -10.9938 89.2132
lradius 126.133
lwrist -0.931914
lhand -17.7455 9.30871
lfingers 7.12502
lthumb 8.51591 39.117
rfemur -9.89997 -8.97482 17.7953
rtibia 45.805
rfoot -25.9715 -1.59132
rtoes -8.10315
lfemur -33.4326 6.08935 -13.6028
ltibia 41.6964
lfoot -12.7792 -1.60532
ltoes -22.1357
5078
root 7.12437 17.5727 -4.97625 24.6432 -78.2654 -17.4359
lowerback 10.5439 4.21042 1.85799
upperback 0.976725 5.83581 1.39244
thorax -4.8323 2.83383 -0.430393
lowerneck -23.2802 1.94663 -7.34213
upperneck 21.8332 3.68705 6.04503
head 10.5907 1.81544 3.97402
rclavicle 5.83433e-014 2.34566e-014
rhumerus -17.1649 31.7164 -89.8281
rradius 130.859
rwrist -7.6565
rhand -17.7411 23.0376
rfingers 7.12502
rthumb 8.52015 -6.77053
lclavicle 5.83433e-014 2.34566e-014
lhumerus -29.3492 -11.5531 89.2823
lradius 125.935
lwrist -1.63904
lhand -17.2694 8.93528
lfingers 7.12502
lthumb 8.97539 38.7244
rfemur -9.71363 -10.0178 18.3356
rtibia 47.1174
rfoot -24.3426 -3.44115
rtoes -5.10485
lfemur -33.2627 5.5553 -12.6502
ltibia 41.7053
lfoot -12.7972 -2.31379
ltoes -23.1893
5079
root 7.20042 17.5725 -5.03714 21.3366 -78.4396 -14.1192
lowerback 10.4529 4.15515 1.36902
upperback 0.995512 5.699 1.25796
thorax -4.79773 2.7771 -0.272985
lowerneck -23.0139 1.99957 -7.48809
upperneck 21.8988 3.77016 6.11671
head 10.5535 1.84611 4.03073
rclavicle -9.93923e-016 -1.19271e-015
rhumerus -17.0162 31.6608 -89.5704
rradius 130.863
rwrist -7.82855
rhand -18.5576 23.2283
rfingers 7.12502
rthumb 7.73217 -6.61035
lclavicle -9.93923e-016 -1.19271e-015
lhumerus -29.1547 -12.1637 89.5175
lradius 125.708
lwrist -2.38048
lhand -17.3874 8.69798
lfingers 7.12502
lthumb 8.86154 38.4919
rfemur -9.78568 -11.1201 17.5561
rtibia 48.2402
rfoot -22.0303 -5.21726
rtoes -2.40914
lfemur -33.3098 5.00069 -12.9463
ltibia 41.9821
lfoot -12.8023 -2.67423
ltoes -22.372
5080
root 7.26652 17.5563 -5.11704 23.8518 -77.7046 -17.1113
lowerback 10.6127 3.89867 2.14768
upperback 1.05538 5.46428 1.65734
thorax -4.79289 2.64596 -0.26535
lowerneck -22.6946 2.107 -7.5734
upperneck 21.9572 3.92022 6.12179
head 10.5012 1.90373 4.06053
rclavicle 8.84592e-015 -1.19271e-015
rhumerus -16.9076 31.6501 -89.3247
rradius 130.895
rwrist -7.76892
rhand -19.0046 23.0252
rfingers 7.12502
rthumb 7.3007 -6.82883
lclavicle 8.84592e-015 -1.19271e-015
lhumerus -28.903 -12.7361 89.7184
lradius 125.583
lwrist -2.87262
lhand -17.8295 9.05266
lfingers 7.12502
lthumb 8.43491 38.8642
rfemur -9.24286 -12.1613 18.503
rtibia 49.011
rfoot -20.2115 -7.23414
rtoes -0.254549
lfemur -33.2643 4.725 -11.613
ltibia 42.5964
lfoot -12.6066 -3.07791
ltoes -21.7274
5081
root 7.33397 17.5296 -5.18858 22.8121 -77.4565 -16.3337
lowerback 10.6203 3.73212 2.13694
upperback 1.09913 5.24315 1.72783
thorax -4.76214 2.53791 -0.153924
lowerneck -22.3155 2.22018 -7.46601
upperneck 21.9461 4.02974 6.03892
head 10.4225 1.94946 4.01617
rclavicle -4.37326e-015 -2.5842e-014
rhumerus -16.6931 31.37 -89.077
rradius 131.034
rwrist -8.51603
rhand -18.8425 22.8628
rfingers 7.12502
rthumb 7.4572 -6.98579
lclavicle -4.37326e-015 -2.5842e-014
lhumerus -28.5279 -13.2869 89.8275
lradius 125.515
lwrist -3.17641
lhand -18.2036 9.46633
lfingers 7.12502
lthumb 8.07387 39.2921
rfemur -8.82417 -13.0124 18.3935
rtibia 49.5331
rfoot -18.4548 -9.04913
rtoes 0.687273
lfemur -33.3175 4.65029 -11.3764
ltibia 43.4212
lfoot -12.5511 -2.97172
ltoes -21.7212
5082
root 7.3984 17.4908 -5.2558 19.9347 -77.4889 -13.4954
lowerback 10.4246 3.63581 1.57992
upperback 1.08952 5.04665 1.66556
thorax -4.70832 2.45426 0.130225
lowerneck -21.9469 2.30051 -7.42305
upperneck 21.9744 4.10638 5.99367
head 10.3603 1.97843 3.99317
rclavicle 1.8487e-014 -5.56597e-015
rhumerus -16.5989 31.1499 -88.7978
rradius 131.156
rwrist -9.23128
rhand -18.4862 22.6129
rfingers 7.12502
rthumb 7.80111 -7.22317
lclavicle 1.8487e-014 -5.56597e-015
lhumerus -28.1045 -13.7264 90.091
lradius 125.444
lwrist -3.5073
lhand -18.4088 9.48012
lfingers 7.12502
lthumb 7.87577 39.3134
rfemur -8.48154 -13.6741 17.678
rtibia 49.6288
rfoot -17.0543 -10.43
rtoes -1.25772
lfemur -33.5914 4.60934 -11.7286
ltibia 44.5841
lfoot -12.5413 -2.63875
ltoes -21.9467
